<?xml version="1.0" encoding="iso-8859-1"?>
<!-- Uploaded to: SVG Repo, www.svgrepo.com, Generator: SVG Repo Mixer Tools -->
<!DOCTYPE svg PUBLIC "-//W3C//DTD SVG 1.1//EN" "http://www.w3.org/Graphics/SVG/1.1/DTD/svg11.dtd">
<svg fill="#000000" version="1.1" id="Capa_1" xmlns="http://www.w3.org/2000/svg" xmlns:xlink="http://www.w3.org/1999/xlink" 
	 width="800px" height="800px" viewBox="0 0 86.708 86.708"
	 xml:space="preserve">
<g>
	<path d="M67.02,2.245L69.158,0H27.499l-9.948,7.186v62.797h17.256v2.701h-8.749l14.028,14.024l14.025-14.024H45.36v-2.701h18.697
		v-1.875v-0.78v-0.784v-3.869V7.188H25.38h-3.207l6.834-4.943H67.02z M41.856,67.939h-3.503v-3.503h3.503V67.939z M59.96,11.88
		v50.658H21.199V11.88H59.96z M28.891,28.866l0.778-2.407h4.5l0.804,2.407h1.312h1.315l-4.197-11.861h-1.438H30.53l-4.197,11.861
		h1.286H28.891z M31.929,19.651l1.575,4.768h-3.149L31.929,19.651z M54.937,19.572h-15.53v-2.336h15.53V19.572z M54.942,58.888
		H25.229v-2.336h29.715L54.942,58.888L54.942,58.888z M54.937,27.31h-15.53v-2.335h15.53V27.31z M55.218,50.712H25.503v-2.335
		h29.715V50.712z M54.937,35.042h-29.16v-2.336h29.16V35.042z M54.937,42.785h-29.16v-2.336h29.16V42.785z"/>
</g>
</svg>